<mxfile host="Electron" modified="2024-01-13T22:52:58.861Z" agent="Mozilla/5.0 (X11; Linux x86_64) AppleWebKit/537.36 (KHTML, like Gecko) draw.io/22.1.16 Chrome/120.0.6099.109 Electron/28.1.0 Safari/537.36" etag="PHTBXgS5jlVEdN9nD83i" version="22.1.16" type="device">
  <diagram name="Server Delete Config Request Processing" id="fo18u6Ch1KVScq3Fo-Wy">
    <mxGraphModel dx="1111" dy="1194" grid="1" gridSize="10" guides="1" tooltips="1" connect="1" arrows="1" fold="1" page="1" pageScale="1" pageWidth="800" pageHeight="350" background="#999999" math="0" shadow="0">
      <root>
        <object label="" description="Sequence diagram for processing an incoming delete_config request from a sensor node." rev="1.0" id="0">
          <mxCell />
        </object>
        <object label="Title Block" id="1">
          <mxCell style="locked=1;" parent="0" />
        </object>
        <mxCell id="h7L3MlKvrl_dhOmhB3lf-10" value="Prepared with: draw.io v22.1.16" style="strokeWidth=1;shadow=0;dashed=0;align=center;html=1;shape=mxgraph.mockup.text.textBox;fontColor=#666666;align=left;fontSize=17;spacingLeft=4;spacingTop=-3;whiteSpace=wrap;strokeColor=#333333;mainText=;fillColor=none;fontFamily=Open Sans;movable=1;resizable=1;rotatable=1;deletable=1;editable=1;locked=0;connectable=1;" parent="1" vertex="1">
          <mxGeometry x="220" y="300" width="280" height="30" as="geometry" />
        </mxCell>
        <object label="&lt;div align=&quot;left&quot;&gt;Sheet %pagenumber%/%pagecount%&lt;/div&gt;" placeholders="1" id="h7L3MlKvrl_dhOmhB3lf-12">
          <mxCell style="strokeWidth=1;shadow=0;dashed=0;align=left;html=1;shape=mxgraph.mockup.text.textBox;fontColor=#666666;align=left;fontSize=17;spacingLeft=4;spacingTop=-3;whiteSpace=wrap;strokeColor=#333333;mainText=;fillColor=none;fontFamily=Open Sans;movable=1;resizable=1;rotatable=1;deletable=1;editable=1;locked=0;connectable=1;" parent="1" vertex="1">
            <mxGeometry x="60" y="300" width="160" height="30" as="geometry" />
          </mxCell>
        </object>
        <object label="Date: &lt;font style=&quot;font-size: 17px;&quot;&gt;%date{ddd mmm dd yyyy HH:MM:ss}%&lt;/font&gt;" placeholders="1" id="h7L3MlKvrl_dhOmhB3lf-13">
          <mxCell style="strokeWidth=1;shadow=0;dashed=0;align=center;html=1;shape=mxgraph.mockup.text.textBox;fontColor=#666666;align=left;fontSize=17;spacingLeft=4;spacingTop=-3;whiteSpace=wrap;strokeColor=#333333;mainText=;fillColor=none;fontFamily=Open Sans;movable=1;resizable=1;rotatable=1;deletable=1;editable=1;locked=0;connectable=1;" parent="1" vertex="1">
            <mxGeometry x="500" y="300" width="280" height="30" as="geometry" />
          </mxCell>
        </object>
        <object label="&lt;b&gt;Title: %page%&lt;/b&gt;" placeholders="1" id="h7L3MlKvrl_dhOmhB3lf-14">
          <mxCell style="strokeWidth=1;shadow=0;dashed=0;align=center;html=1;shape=mxgraph.mockup.text.textBox;fontColor=#666666;align=left;fontSize=17;spacingLeft=4;spacingTop=-3;whiteSpace=wrap;strokeColor=#333333;mainText=;fillColor=none;fontFamily=Open Sans;movable=1;resizable=1;rotatable=1;deletable=1;editable=1;locked=0;connectable=1;" parent="1" vertex="1">
            <mxGeometry x="60" y="240" width="720" height="30" as="geometry" />
          </mxCell>
        </object>
        <object label="Filename: %filename%" placeholders="1" id="h7L3MlKvrl_dhOmhB3lf-15">
          <mxCell style="strokeWidth=1;shadow=0;dashed=0;align=center;html=1;shape=mxgraph.mockup.text.textBox;fontColor=#666666;align=left;fontSize=17;spacingLeft=4;spacingTop=-3;whiteSpace=wrap;strokeColor=#333333;mainText=;fillColor=none;fontFamily=Open Sans;movable=1;resizable=1;rotatable=1;deletable=1;editable=1;locked=0;connectable=1;" parent="1" vertex="1">
            <mxGeometry x="60" y="270" width="580" height="30" as="geometry" />
          </mxCell>
        </object>
        <object label="&lt;div align=&quot;left&quot;&gt;%description%&lt;/div&gt;" placeholders="1" id="h7L3MlKvrl_dhOmhB3lf-16">
          <mxCell style="strokeWidth=1;shadow=0;dashed=0;html=1;shape=mxgraph.mockup.text.textBox;fontColor=#666666;align=left;verticalAlign=top;fontSize=12;spacingLeft=4;spacingTop=-3;whiteSpace=wrap;strokeColor=#333333;mainText=;fillColor=none;fontFamily=Open Sans;movable=1;resizable=1;rotatable=1;deletable=1;editable=1;locked=0;connectable=1;" parent="1" vertex="1">
            <mxGeometry x="60" y="200" width="720" height="40" as="geometry" />
          </mxCell>
        </object>
        <object label="&lt;b&gt;Rev: %rev%&lt;br&gt;&lt;/b&gt;" placeholders="1" id="EyKvBmyPNv_MzgSUc5b6-1">
          <mxCell style="strokeWidth=1;shadow=0;dashed=0;align=center;html=1;shape=mxgraph.mockup.text.textBox;fontColor=#666666;align=left;fontSize=17;spacingLeft=4;spacingTop=-3;whiteSpace=wrap;strokeColor=#333333;mainText=;fillColor=none;fontFamily=Open Sans;movable=1;resizable=1;rotatable=1;deletable=1;editable=1;locked=0;connectable=1;" parent="1" vertex="1">
            <mxGeometry x="640" y="270" width="140" height="30" as="geometry" />
          </mxCell>
        </object>
        <object label="Drawing Frame" id="2jkEU8j2_UPUL1MGRyPS-1">
          <mxCell style="locked=1;" parent="0" />
        </object>
        <mxCell id="2jkEU8j2_UPUL1MGRyPS-2" value="" style="rounded=0;whiteSpace=wrap;html=1;fillColor=none;strokeWidth=3;movable=1;resizable=1;rotatable=1;deletable=1;editable=1;locked=0;connectable=1;" parent="2jkEU8j2_UPUL1MGRyPS-1" vertex="1">
          <mxGeometry x="60" y="-340" width="720" height="670" as="geometry" />
        </mxCell>
        <object label="Document" id="NbdiYjX3MhI7OpqD2NvG-1">
          <mxCell parent="0" />
        </object>
        <mxCell id="76XYHuqCk6hpkV-VkHTu-1" value="loop(for each config &lt;i&gt;filename&lt;/i&gt;)" style="shape=umlFrame;whiteSpace=wrap;html=1;pointerEvents=0;fillColor=#E6E6E6;width=180;height=20;fontFamily=Open Sans;dashed=1;dashPattern=12 12;align=left;" vertex="1" parent="NbdiYjX3MhI7OpqD2NvG-1">
          <mxGeometry x="110" y="-260" width="620" height="410" as="geometry" />
        </mxCell>
        <mxCell id="wkoMTMszb8feKshPE3ry-12" value="Update applied&lt;br&gt;successfully" style="html=1;align=left;spacingLeft=2;endArrow=block;rounded=0;edgeStyle=orthogonalEdgeStyle;curved=0;rounded=0;fontFamily=Open Sans;" parent="NbdiYjX3MhI7OpqD2NvG-1" edge="1">
          <mxGeometry relative="1" as="geometry">
            <mxPoint x="300" y="-250" as="sourcePoint" />
            <Array as="points">
              <mxPoint x="330" y="-250" />
              <mxPoint x="330" y="-220" />
            </Array>
            <mxPoint x="305" y="-220" as="targetPoint" />
          </mxGeometry>
        </mxCell>
        <mxCell id="Iwt6Ft-PqrTWGJXxDrMG-19" value="Sensor Node" style="shape=umlLifeline;perimeter=lifelinePerimeter;whiteSpace=wrap;html=1;container=1;dropTarget=0;collapsible=0;recursiveResize=0;outlineConnect=0;portConstraint=eastwest;newEdgeStyle={&quot;curved&quot;:0,&quot;rounded&quot;:0};fontFamily=Open Sans;fillColor=#F0F0F0;" parent="NbdiYjX3MhI7OpqD2NvG-1" vertex="1">
          <mxGeometry x="250" y="-310" width="100" height="480" as="geometry" />
        </mxCell>
        <mxCell id="7Aj4RmTkRRsbpIWRG7jr-2" value="" style="html=1;points=[[0,0,0,0,5],[0,1,0,0,-5],[1,0,0,0,5],[1,1,0,0,-5]];perimeter=orthogonalPerimeter;outlineConnect=0;targetShapes=umlLifeline;portConstraint=eastwest;newEdgeStyle={&quot;curved&quot;:0,&quot;rounded&quot;:0};fontFamily=Open Sans;fillColor=#F0F0F0;" parent="Iwt6Ft-PqrTWGJXxDrMG-19" vertex="1">
          <mxGeometry x="45" y="50" width="10" height="410" as="geometry" />
        </mxCell>
        <mxCell id="Iwt6Ft-PqrTWGJXxDrMG-20" value="Node-RED&lt;br&gt;Flows" style="shape=umlLifeline;perimeter=lifelinePerimeter;whiteSpace=wrap;html=1;container=1;dropTarget=0;collapsible=0;recursiveResize=0;outlineConnect=0;portConstraint=eastwest;newEdgeStyle={&quot;curved&quot;:0,&quot;rounded&quot;:0};fontFamily=Open Sans;fillColor=#F0F0F0;" parent="NbdiYjX3MhI7OpqD2NvG-1" vertex="1">
          <mxGeometry x="440" y="-310" width="100" height="480" as="geometry" />
        </mxCell>
        <mxCell id="7Aj4RmTkRRsbpIWRG7jr-16" value="parse header()" style="html=1;align=left;spacingLeft=2;endArrow=block;rounded=0;edgeStyle=orthogonalEdgeStyle;curved=0;rounded=0;fontFamily=Open Sans;" parent="Iwt6Ft-PqrTWGJXxDrMG-20" edge="1">
          <mxGeometry relative="1" as="geometry">
            <mxPoint x="50" y="130" as="sourcePoint" />
            <Array as="points">
              <mxPoint x="80" y="160" />
            </Array>
            <mxPoint x="55" y="160" as="targetPoint" />
          </mxGeometry>
        </mxCell>
        <mxCell id="7Aj4RmTkRRsbpIWRG7jr-3" value="" style="html=1;points=[[0,0,0,0,5],[0,1,0,0,-5],[1,0,0,0,5],[1,1,0,0,-5]];perimeter=orthogonalPerimeter;outlineConnect=0;targetShapes=umlLifeline;portConstraint=eastwest;newEdgeStyle={&quot;curved&quot;:0,&quot;rounded&quot;:0};fontFamily=Open Sans;fillColor=#F0F0F0;" parent="Iwt6Ft-PqrTWGJXxDrMG-20" vertex="1">
          <mxGeometry x="45" y="110" width="10" height="330" as="geometry" />
        </mxCell>
        <mxCell id="7Aj4RmTkRRsbpIWRG7jr-15" value="delete()" style="html=1;align=left;spacingLeft=2;endArrow=block;rounded=0;edgeStyle=orthogonalEdgeStyle;curved=0;rounded=0;fontFamily=Open Sans;" parent="Iwt6Ft-PqrTWGJXxDrMG-20" edge="1">
          <mxGeometry x="-0.0597" relative="1" as="geometry">
            <mxPoint x="60" y="340" as="sourcePoint" />
            <Array as="points">
              <mxPoint x="90" y="370" />
            </Array>
            <mxPoint x="65" y="370" as="targetPoint" />
            <mxPoint as="offset" />
          </mxGeometry>
        </mxCell>
        <mxCell id="7Aj4RmTkRRsbpIWRG7jr-17" value="" style="html=1;points=[[0,0,0,0,5],[0,1,0,0,-5],[1,0,0,0,5],[1,1,0,0,-5]];perimeter=orthogonalPerimeter;outlineConnect=0;targetShapes=umlLifeline;portConstraint=eastwest;newEdgeStyle={&quot;curved&quot;:0,&quot;rounded&quot;:0};fillColor=#F0F0F0;fontFamily=Open Sans;" parent="Iwt6Ft-PqrTWGJXxDrMG-20" vertex="1">
          <mxGeometry x="50" y="200" width="10" height="230" as="geometry" />
        </mxCell>
        <mxCell id="7Aj4RmTkRRsbpIWRG7jr-18" value="update config" style="html=1;align=left;spacingLeft=2;endArrow=block;rounded=0;edgeStyle=orthogonalEdgeStyle;curved=0;rounded=0;fontFamily=Open Sans;" parent="Iwt6Ft-PqrTWGJXxDrMG-20" target="7Aj4RmTkRRsbpIWRG7jr-17" edge="1">
          <mxGeometry x="0.0118" relative="1" as="geometry">
            <mxPoint x="55" y="180" as="sourcePoint" />
            <Array as="points">
              <mxPoint x="85" y="180" />
              <mxPoint x="85" y="210" />
            </Array>
            <mxPoint as="offset" />
          </mxGeometry>
        </mxCell>
        <mxCell id="wkoMTMszb8feKshPE3ry-6" value="" style="html=1;points=[[0,0,0,0,5],[0,1,0,0,-5],[1,0,0,0,5],[1,1,0,0,-5]];perimeter=orthogonalPerimeter;outlineConnect=0;targetShapes=umlLifeline;portConstraint=eastwest;newEdgeStyle={&quot;curved&quot;:0,&quot;rounded&quot;:0};fontFamily=Open Sans;fillColor=#F0F0F0;" parent="Iwt6Ft-PqrTWGJXxDrMG-20" vertex="1">
          <mxGeometry x="55" y="360" width="10" height="60" as="geometry" />
        </mxCell>
        <mxCell id="wkoMTMszb8feKshPE3ry-7" value="readdir(&quot;sensor-cfg&quot;)" style="html=1;align=left;spacingLeft=2;endArrow=block;rounded=0;edgeStyle=orthogonalEdgeStyle;curved=0;rounded=0;fontFamily=Open Sans;" parent="Iwt6Ft-PqrTWGJXxDrMG-20" edge="1">
          <mxGeometry x="-0.0597" relative="1" as="geometry">
            <mxPoint x="60" y="230" as="sourcePoint" />
            <Array as="points">
              <mxPoint x="90" y="260" />
            </Array>
            <mxPoint x="65" y="260" as="targetPoint" />
            <mxPoint as="offset" />
          </mxGeometry>
        </mxCell>
        <mxCell id="wkoMTMszb8feKshPE3ry-8" value="" style="html=1;points=[[0,0,0,0,5],[0,1,0,0,-5],[1,0,0,0,5],[1,1,0,0,-5]];perimeter=orthogonalPerimeter;outlineConnect=0;targetShapes=umlLifeline;portConstraint=eastwest;newEdgeStyle={&quot;curved&quot;:0,&quot;rounded&quot;:0};fontFamily=Open Sans;fillColor=#F0F0F0;" parent="Iwt6Ft-PqrTWGJXxDrMG-20" vertex="1">
          <mxGeometry x="55" y="250" width="10" height="60" as="geometry" />
        </mxCell>
        <mxCell id="Iwt6Ft-PqrTWGJXxDrMG-33" value="VFS" style="shape=umlLifeline;perimeter=lifelinePerimeter;whiteSpace=wrap;html=1;container=1;dropTarget=0;collapsible=0;recursiveResize=0;outlineConnect=0;portConstraint=eastwest;newEdgeStyle={&quot;curved&quot;:0,&quot;rounded&quot;:0};fontFamily=Open Sans;fillColor=#F0F0F0;" parent="NbdiYjX3MhI7OpqD2NvG-1" vertex="1">
          <mxGeometry x="630" y="-310" width="100" height="480" as="geometry" />
        </mxCell>
        <mxCell id="7Aj4RmTkRRsbpIWRG7jr-21" value="" style="html=1;points=[[0,0,0,0,5],[0,1,0,0,-5],[1,0,0,0,5],[1,1,0,0,-5]];perimeter=orthogonalPerimeter;outlineConnect=0;targetShapes=umlLifeline;portConstraint=eastwest;newEdgeStyle={&quot;curved&quot;:0,&quot;rounded&quot;:0};fontFamily=Open Sans;fillColor=#F0F0F0;" parent="Iwt6Ft-PqrTWGJXxDrMG-33" vertex="1">
          <mxGeometry x="45" y="380" width="10" height="35" as="geometry" />
        </mxCell>
        <mxCell id="wkoMTMszb8feKshPE3ry-2" value="" style="html=1;points=[[0,0,0,0,5],[0,1,0,0,-5],[1,0,0,0,5],[1,1,0,0,-5]];perimeter=orthogonalPerimeter;outlineConnect=0;targetShapes=umlLifeline;portConstraint=eastwest;newEdgeStyle={&quot;curved&quot;:0,&quot;rounded&quot;:0};fontFamily=Open Sans;fillColor=#F0F0F0;" parent="Iwt6Ft-PqrTWGJXxDrMG-33" vertex="1">
          <mxGeometry x="45" y="270" width="10" height="35" as="geometry" />
        </mxCell>
        <mxCell id="7Aj4RmTkRRsbpIWRG7jr-12" value="TCP:2880(delete_config,filename)" style="html=1;verticalAlign=bottom;endArrow=block;endSize=8;curved=0;rounded=0;fontFamily=Open Sans;endFill=1;fontSize=11;entryX=0;entryY=0;entryDx=0;entryDy=5;entryPerimeter=0;" parent="NbdiYjX3MhI7OpqD2NvG-1" edge="1" target="7Aj4RmTkRRsbpIWRG7jr-3" source="7Aj4RmTkRRsbpIWRG7jr-2">
          <mxGeometry width="80" relative="1" as="geometry">
            <mxPoint x="305" y="-170" as="sourcePoint" />
            <mxPoint x="485" y="-170" as="targetPoint" />
          </mxGeometry>
        </mxCell>
        <mxCell id="7Aj4RmTkRRsbpIWRG7jr-19" value="TCP(&quot;&quot;)" style="rounded=0;orthogonalLoop=1;jettySize=auto;html=1;dashed=1;endArrow=block;endFill=1;exitX=0;exitY=1;exitDx=0;exitDy=-5;exitPerimeter=0;fontFamily=Open Sans;" parent="NbdiYjX3MhI7OpqD2NvG-1" source="7Aj4RmTkRRsbpIWRG7jr-17" target="7Aj4RmTkRRsbpIWRG7jr-2" edge="1">
          <mxGeometry x="0.0024" relative="1" as="geometry">
            <mxPoint x="320" y="220" as="sourcePoint" />
            <mxPoint x="175" y="230" as="targetPoint" />
            <mxPoint as="offset" />
          </mxGeometry>
        </mxCell>
        <mxCell id="7Aj4RmTkRRsbpIWRG7jr-23" value="unlink()" style="html=1;verticalAlign=bottom;endArrow=block;endSize=8;curved=0;rounded=0;fontFamily=Open Sans;endFill=1;fontSize=11;entryX=0;entryY=0;entryDx=0;entryDy=5;entryPerimeter=0;" parent="NbdiYjX3MhI7OpqD2NvG-1" source="wkoMTMszb8feKshPE3ry-6" target="7Aj4RmTkRRsbpIWRG7jr-21" edge="1">
          <mxGeometry x="-0.0353" width="80" relative="1" as="geometry">
            <mxPoint x="495" y="235" as="sourcePoint" />
            <mxPoint x="490" y="235" as="targetPoint" />
            <mxPoint as="offset" />
          </mxGeometry>
        </mxCell>
        <mxCell id="7Aj4RmTkRRsbpIWRG7jr-24" value="" style="rounded=0;orthogonalLoop=1;jettySize=auto;html=1;dashed=1;endArrow=block;endFill=1;exitX=0;exitY=1;exitDx=0;exitDy=-5;exitPerimeter=0;fontFamily=Open Sans;" parent="NbdiYjX3MhI7OpqD2NvG-1" source="7Aj4RmTkRRsbpIWRG7jr-21" target="wkoMTMszb8feKshPE3ry-6" edge="1">
          <mxGeometry relative="1" as="geometry">
            <mxPoint x="635" y="275" as="sourcePoint" />
            <mxPoint x="495" y="260" as="targetPoint" />
          </mxGeometry>
        </mxCell>
        <mxCell id="wkoMTMszb8feKshPE3ry-3" value="readdir()" style="html=1;verticalAlign=bottom;endArrow=block;endSize=8;curved=0;rounded=0;fontFamily=Open Sans;endFill=1;fontSize=11;entryX=0;entryY=0;entryDx=0;entryDy=5;entryPerimeter=0;" parent="NbdiYjX3MhI7OpqD2NvG-1" source="wkoMTMszb8feKshPE3ry-8" target="wkoMTMszb8feKshPE3ry-2" edge="1">
          <mxGeometry x="-0.0345" width="80" relative="1" as="geometry">
            <mxPoint x="495" y="-55" as="sourcePoint" />
            <mxPoint x="490" y="-55" as="targetPoint" />
            <mxPoint as="offset" />
          </mxGeometry>
        </mxCell>
        <mxCell id="wkoMTMszb8feKshPE3ry-4" value="" style="rounded=0;orthogonalLoop=1;jettySize=auto;html=1;dashed=1;endArrow=block;endFill=1;exitX=0;exitY=1;exitDx=0;exitDy=-5;exitPerimeter=0;fontFamily=Open Sans;" parent="NbdiYjX3MhI7OpqD2NvG-1" source="wkoMTMszb8feKshPE3ry-2" target="wkoMTMszb8feKshPE3ry-8" edge="1">
          <mxGeometry relative="1" as="geometry">
            <mxPoint x="635" y="-15" as="sourcePoint" />
            <mxPoint x="495" y="-30" as="targetPoint" />
          </mxGeometry>
        </mxCell>
      </root>
    </mxGraphModel>
  </diagram>
</mxfile>
